<?xml version="1.0" encoding="UTF-8" standalone="no"?>
<!-- Created with Inkscape (http://www.inkscape.org/) -->
<svg
   xmlns:dc="http://purl.org/dc/elements/1.1/"
   xmlns:cc="http://creativecommons.org/ns#"
   xmlns:rdf="http://www.w3.org/1999/02/22-rdf-syntax-ns#"
   xmlns:svg="http://www.w3.org/2000/svg"
   xmlns="http://www.w3.org/2000/svg"
   xmlns:xlink="http://www.w3.org/1999/xlink"
   xmlns:sodipodi="http://sodipodi.sourceforge.net/DTD/sodipodi-0.dtd"
   xmlns:inkscape="http://www.inkscape.org/namespaces/inkscape"
   width="744.09448819"
   height="1052.3622047"
   id="svg2"
   sodipodi:version="0.32"
   inkscape:version="0.46"
   sodipodi:docname="hemitotest.svg"
   inkscape:output_extension="org.inkscape.output.svg.inkscape">
  <defs
     id="defs4">
    <inkscape:perspective
       sodipodi:type="inkscape:persp3d"
       inkscape:vp_x="0 : 526.18109 : 1"
       inkscape:vp_y="0 : 1000 : 0"
       inkscape:vp_z="744.09448 : 526.18109 : 1"
       inkscape:persp3d-origin="372.04724 : 350.78739 : 1"
       id="perspective10" />
    <inkscape:perspective
       id="perspective2390"
       inkscape:persp3d-origin="372.04724 : 350.78739 : 1"
       inkscape:vp_z="744.09448 : 526.18109 : 1"
       inkscape:vp_y="0 : 1000 : 0"
       inkscape:vp_x="0 : 526.18109 : 1"
       sodipodi:type="inkscape:persp3d" />
  </defs>
  <sodipodi:namedview
     id="base"
     pagecolor="#ffffff"
     bordercolor="#666666"
     borderopacity="1.0"
     gridtolerance="10000"
     guidetolerance="10"
     objecttolerance="10"
     inkscape:pageopacity="0.0"
     inkscape:pageshadow="2"
     inkscape:zoom="1.63"
     inkscape:cx="399.01512"
     inkscape:cy="421.84049"
     inkscape:document-units="px"
     inkscape:current-layer="layer1"
     showgrid="false"
     inkscape:window-width="1440"
     inkscape:window-height="833"
     inkscape:window-x="-5"
     inkscape:window-y="-3" />
  <metadata
     id="metadata7">
    <rdf:RDF>
      <cc:Work
         rdf:about="">
        <dc:format>image/svg+xml</dc:format>
        <dc:type
           rdf:resource="http://purl.org/dc/dcmitype/StillImage" />
      </cc:Work>
    </rdf:RDF>
  </metadata>
  <g
     inkscape:label="Layer 1"
     inkscape:groupmode="layer"
     id="layer1">
    <path
       style="fill:#000000"
       d="M 183.23072,326.68402 C 180.75572,326.25109 175.18695,324.98189 170.85568,323.86357 L 162.98065,321.83026 L 152.47926,315.51015 L 141.97786,309.19003 L 131.26935,298.98887 L 120.56083,288.7877 L 115.44502,280.44552 C 108.45316,269.04414 102.77741,256.38884 100.84451,247.89054 L 99.230718,240.79522 L 99.230718,225.19003 L 99.230718,209.58484 L 100.84451,202.48952 C 102.77194,194.01529 108.44948,181.34192 115.38486,170.03262 L 121.13731,162.0419 L 130.08562,152.42968 C 143.61478,139.30205 159.97661,129.13963 172.23486,126.25056 L 178.73072,124.71959 L 390.73072,124.71959 L 602.73072,124.71959 L 609.22658,126.25056 C 621.52401,129.14886 637.84702,139.30239 651.48867,152.53919 L 661.24661,162.00754 L 667.19442,171.6313 C 675.40348,184.91383 677.8878,190.73918 680.93909,203.86041 L 683.57375,215.19003 L 683.57375,225.19003 L 683.57375,235.19003 L 680.93909,246.51965 C 677.88267,259.66295 675.40592,265.46228 667.13104,278.85131 L 661.11986,288.5776 L 650.30172,298.88382 L 639.48358,309.19003 L 628.97352,315.51542 L 618.46347,321.8408 L 609.09709,324.48621 L 599.73072,327.13162 L 393.73072,327.3014 C 280.43072,327.39477 185.70572,327.11695 183.23072,326.68402 z M 606.73072,321.88441 C 615.52984,319.59895 624.4744,315.18939 631.42075,311.40586 C 635.67658,308.95462 639.24562,305.98107 642.69914,302.69003 C 644.60789,300.91641 657.39376,288.96636 659.67413,286.28021 C 662.36341,282.09558 665.29267,277.31206 668.25954,272.89152 C 671.04422,269.9911 675.43709,256.27738 677.92275,245.54051 L 680.55046,234.19003 L 680.55046,225.19003 L 680.55046,216.19003 L 677.92275,204.83955 C 675.43709,194.10268 670.72751,181.65583 667.81614,177.80526 C 665.21841,173.22786 662.33892,168.62036 659.23072,164.46215 C 659.23072,162.89382 644.16524,147.69003 642.61117,147.69003 C 640.67077,146.40458 639.62526,144.54167 637.24391,143.54478 C 633.81065,141.57516 630.63032,139.35193 627.05215,137.42133 C 624.15809,134.64276 611.18141,129.73255 601.53842,127.76727 L 591.34613,125.69003 L 390.73072,125.69003 L 190.11531,125.69003 L 179.92302,127.76727 C 170.28003,129.73255 157.87344,134.45273 154.47263,137.10461 C 149.07219,139.62864 144.39651,143.38193 138.78693,147.43666 C 136.35571,149.40031 122.54203,162.83139 121.76562,165.44003 C 119.57683,168.42856 117.75227,171.77351 115.95649,174.8686 C 115.25567,175.59539 112.54808,180.91503 109.93964,186.69003 L 105.19701,197.19003 L 103.2355,206.19003 L 101.274,215.19003 L 101.274,225.19003 L 101.274,235.19003 L 103.2355,244.19003 L 105.19701,253.19003 L 109.93964,263.69003 C 112.54808,269.46503 114.4322,274.21458 115.95649,275.51146 C 117.52504,279.69616 121.96221,287.0154 125.24952,289.75414 C 132.57535,297.31806 151.98301,312.69988 156.71251,315.59118 C 159.84097,318.66868 175.53853,322.53547 185.73072,323.98119 C 187.38072,324.21524 280.98072,324.34556 393.73072,324.27079 L 598.73072,324.13485 L 606.73072,321.88441 z M 192.23072,311.72666 C 183.51565,310.34074 158.58846,299.48366 157.40977,296.56033 C 157.23325,296.12253 154.10548,293.63546 150.45918,291.03351 C 142.99475,285.70701 140.21653,282.77368 132.82849,272.41851 C 123.92571,259.94027 121.97117,255.72216 118.28098,241.02342 L 116.23072,232.8568 L 116.23072,224.69003 L 116.23072,216.52326 L 118.25749,208.35664 C 124.07028,184.93481 135.31307,169.20815 157.83585,152.9936 C 167.42378,146.09108 181.28845,139.69003 186.65137,139.69003 C 187.42835,139.69003 188.25155,139.12753 188.48072,138.44003 L 188.89739,137.19003 L 389.10053,137.19003 L 589.30367,137.19003 L 590.01719,138.31274 C 590.40963,138.93024 593.04745,139.92817 595.87902,140.53038 C 619.53252,145.56091 647.52669,171.51338 658.20232,198.30825 L 662.23363,208.42647 L 662.84402,218.80825 L 663.45442,229.19003 L 662.43386,236.19003 C 659.62072,255.48531 644.21787,280.05545 627.37323,292.11763 C 624.33162,294.29568 621.13625,296.7845 620.2724,297.64835 C 618.20905,299.7117 605.65995,305.83174 596.23072,309.37318 L 588.73072,312.19003 L 392.73072,312.31615 C 284.93072,312.38552 194.70572,312.12025 192.23072,311.72666 z M 119.71604,213.19003 C 117.86512,219.58688 117.86512,229.79318 119.71604,236.19003 L 121.16278,241.19003 L 120.57926,233.44003 L 119.99574,225.69003 L 389.61323,225.69003 L 659.23072,225.69003 L 659.21061,227.94003 C 659.19955,229.17753 658.78257,233.01079 658.28397,236.45838 L 657.37744,242.72673 L 652.62685,253.45838 C 644.74511,271.26332 635.72456,281.98072 618.4296,294.08845 C 610.36095,299.73709 606.77776,301.43064 593.23072,305.99838 L 586.73072,308.19003 L 389.73072,308.19003 L 192.73072,308.19003 L 186.73072,306.30754 C 175.39468,302.75089 167.71522,299.00875 159.10095,292.84376 C 142.2253,280.76636 132.54304,268.37231 124.79895,248.93456 C 121.23802,239.99658 120.1295,240.22896 123.18443,249.27301 C 127.98034,263.47122 140.53784,280.52662 152.45918,289.03351 C 156.10548,291.63546 159.23325,294.12253 159.40977,294.56033 C 160.58843,297.48359 185.51529,308.34059 194.23072,309.72675 C 196.70572,310.1204 286.03072,310.38567 392.73072,310.31625 L 586.73072,310.19003 L 594.23072,307.37318 C 603.65995,303.83174 616.20905,297.7117 618.2724,295.64835 C 619.13625,294.7845 622.33162,292.29568 625.37323,290.11763 C 642.3953,277.92839 657.76141,253.2636 660.43698,233.83532 L 661.44983,226.48061 L 660.75873,218.184 L 660.06762,209.88738 L 655.78963,199.39028 L 651.51163,188.89318 L 645.97081,181.0416 C 632.99258,162.65091 608.39619,144.74982 592.73072,142.29381 L 588.73072,141.6667 L 600.08954,146.0902 L 611.44837,150.51369 L 618.10332,155.10219 C 634.14552,166.16306 645.40579,179.46728 652.65165,195.92168 L 657.37744,206.65333 L 658.28397,212.92168 C 658.78257,216.36927 659.19955,220.20253 659.21061,221.44003 L 659.23072,223.69003 L 389.61323,223.69003 L 119.99574,223.69003 L 120.57926,215.94003 M 591.73072,303.9739 C 606.15447,298.75366 608.5685,297.59154 616.4296,292.08389 C 633.13802,280.37759 641.16722,271.14185 649.06117,254.54879 C 654.54003,243.03223 655.78276,239.39763 656.62052,232.44003 L 657.19246,227.69003 L 389.70285,227.69003 L 122.21325,227.69003 L 122.88158,233.37647 C 124.16812,244.3229 134.56723,265.47466 143.54526,275.40636 C 158.33854,291.77101 176.33157,302.29803 195.23072,305.64551 C 197.70572,306.08389 286.58072,306.3757 392.73072,306.29399 L 585.73072,306.14542 L 591.73072,303.9739 z M 413.43072,278.49003 C 411.42621,276.48552 412.06288,275.69003 415.6717,275.69003 C 417.56424,275.69003 419.34048,275.32145 419.61889,274.87097 C 419.8973,274.42049 418.86416,274.23698 417.32301,274.46318 L 414.52093,274.87443 L 412.37583,272.14737 C 409.67481,268.71358 409.65413,265.69276 412.30855,262.31822 L 414.38637,259.67669 L 419.05855,259.97759 L 423.73072,260.27849 L 424.03684,266.19259 C 424.39425,273.09761 423.82467,275.95322 421.65779,278.1201 C 419.7994,279.97849 415.12918,280.18849 413.43072,278.49003 z M 421.25078,276.16586 C 423.08908,273.95084 422.04301,273.6962 419.98072,275.8567 C 419.01822,276.86503 418.62562,277.69003 419.10828,277.69003 C 419.59093,277.69003 420.55506,277.00416 421.25078,276.16586 z M 414.48072,270.8567 C 413.51822,269.84836 412.55409,269.16249 412.33822,269.33253 C 411.74749,269.79784 414.3446,272.69003 415.35316,272.69003 C 415.83582,272.69003 415.44322,271.86503 414.48072,270.8567 z M 422.23072,270.85478 L 422.23072,269.44514 L 420.48072,270.78462 C 419.51822,271.52133 418.56736,272.22729 418.36769,272.35343 C 418.16802,272.47956 418.95552,272.51113 420.11769,272.42359 L 422.23072,272.26442 L 422.23072,270.85478 z M 419.73072,267.19003 L 419.73072,264.19003 L 417.24442,264.19003 L 414.75811,264.19003 L 414.40984,265.99844 C 414.21829,266.99307 414.32262,268.48713 414.64168,269.31858 L 415.22178,270.8303 L 417.47625,270.51017 L 419.73072,270.19003 L 419.73072,267.19003 z M 415.58822,261.79753 C 415.12291,261.2068 412.23072,263.80391 412.23072,264.81247 C 412.23072,265.29513 413.05572,264.90253 414.06405,263.94003 C 415.07239,262.97753 415.75826,262.0134 415.58822,261.79753 z M 422.23072,263.40283 C 422.23072,262.69488 421.27747,262.04383 420.11239,261.95607 L 417.99407,261.7965 L 419.86239,263.21146 C 422.18594,264.97118 422.23072,264.9748 422.23072,263.40283 z M 449.76606,278.74722 C 448.89845,277.34339 449.99287,275.69003 451.78974,275.69003 C 453.76078,275.69003 453.5634,273.02 451.20876,267.83083 C 449.07,263.11742 448.64852,259.69003 450.20767,259.69003 C 451.91569,259.69003 454.53665,264.68899 454.82975,268.50572 C 454.98535,270.53209 455.15809,272.64003 455.21361,273.19003 C 455.33483,274.3909 459.14408,267.62277 459.15337,266.19003 C 459.15693,265.64003 458.47512,266.31503 457.63823,267.69003 L 456.1166,270.19003 L 456.74138,267.19003 C 457.50231,263.53629 459.88053,259.69003 461.37877,259.69003 L 462.48072,259.69003 L 461.85915,262.79787 C 461.51729,264.50719 459.77354,268.89469 457.98415,272.54787 L 454.73072,279.19003 L 452.57508,279.49722 C 451.38948,279.66617 450.12542,279.32867 449.76606,278.74722 z M 454.77184,276.6235 C 455.7979,274.96329 454.87695,274.73307 453.44129,276.29089 L 452.15187,277.69003 L 453.13228,277.69003 C 453.6715,277.69003 454.4093,277.21009 454.77184,276.6235 z M 453.35279,267.01503 C 452.17395,264.98782 451.88928,265.63668 452.85426,268.15137 C 453.1972,269.04507 453.68845,269.56563 453.94592,269.30816 C 454.20339,269.05069 453.93648,268.01878 453.35279,267.01503 z M 460.61228,263.13809 L 461.20781,261.58615 L 460.21927,262.19711 C 459.67557,262.53313 459.23072,263.23151 459.23072,263.74905 C 459.23072,265.18748 459.94749,264.87051 460.61228,263.13809 z M 328.6562,273.35644 C 328.37474,272.62297 328.27637,268.23547 328.43759,263.60644 L 328.73072,255.19003 L 332.9259,254.88521 L 337.12108,254.58039 L 339.26961,256.72892 L 341.41814,258.87745 L 340.79375,262.20576 L 340.16935,265.53407 L 341.20004,266.17107 C 342.87597,267.20685 342.38028,270.54047 340.23072,272.69003 L 338.23072,274.69003 L 333.69934,274.69003 L 329.16795,274.69003 L 328.6562,273.35644 z M 337.73072,268.69003 L 337.73072,267.19003 L 334.98072,266.87361 L 332.23072,266.55719 L 332.23072,268.69003 L 332.23072,270.82287 L 334.98072,270.50645 L 337.73072,270.19003 L 337.73072,268.69003 z M 338.99865,265.69003 C 338.31169,264.59003 337.33813,263.69003 336.83519,263.69003 C 336.33224,263.69003 336.73523,264.59003 337.73072,265.69003 C 338.72621,266.79003 339.69976,267.69003 339.89418,267.69003 C 340.0886,267.69003 339.68561,266.79003 338.99865,265.69003 z M 336.73072,260.69003 L 336.73072,259.19003 L 334.48072,258.87048 L 332.23072,258.55093 L 332.23072,260.69003 L 332.23072,262.82913 L 334.48072,262.50958 L 336.73072,262.19003 L 336.73072,260.69003 z M 338.77184,257.75656 C 338.4093,257.16997 337.6715,256.69003 337.13228,256.69003 L 336.15187,256.69003 L 337.44129,258.08917 C 338.87695,259.64699 339.7979,259.41677 338.77184,257.75656 z M 345.88711,272.86283 C 342.7637,269.41151 344.24744,266.40837 349.91679,264.7066 L 352.73072,263.86194 L 348.98072,263.77598 C 344.89819,263.68241 344.11094,262.35969 347.16498,260.72521 C 350.14829,259.12859 353.02974,259.48905 355.28123,261.74054 L 357.33174,263.79105 L 357.03123,268.94666 L 356.73072,274.10227 L 352.13711,274.3977 L 347.54349,274.69312 L 345.88711,272.86283 z M 349.23072,272.29702 C 349.23072,272.08086 348.53235,271.63602 347.67878,271.30847 L 346.12684,270.71294 L 346.7378,271.70148 C 347.32506,272.65169 349.23072,273.10693 349.23072,272.29702 z M 355.23072,270.85478 L 355.23072,269.44514 L 353.48072,270.78462 C 352.51822,271.52133 351.56736,272.22729 351.36769,272.35343 C 351.16802,272.47956 351.95552,272.51113 353.11769,272.42359 L 355.23072,272.26442 L 355.23072,270.85478 z M 352.73072,269.69003 L 353.34875,268.69003 L 350.78974,268.69003 C 349.38228,268.69003 348.23072,269.14003 348.23072,269.69003 C 348.23072,270.24003 349.10416,270.69003 350.1717,270.69003 C 351.23924,270.69003 352.3908,270.24003 352.73072,269.69003 z M 348.69639,266.83989 C 348.13293,266.24675 346.23072,267.75003 346.23072,268.78847 L 346.23072,269.76888 L 347.62986,268.47946 C 348.39939,267.77027 348.87933,267.03247 348.69639,266.83989 z M 360.67722,273.41122 C 360.37222,272.6164 360.25949,269.33749 360.4267,266.12477 L 360.73072,260.28345 L 364.99572,260.00173 L 369.26071,259.72002 L 371.29622,261.75553 L 373.33174,263.79105 L 373.03123,268.99054 L 372.73072,274.19003 L 371.23072,274.19003 L 369.73072,274.19003 L 369.23072,269.19003 L 368.73072,264.19003 L 366.73072,264.19003 L 364.73072,264.19003 L 364.23072,269.11248 L 363.73072,274.03494 L 362.48125,274.44564 C 361.79404,274.67153 360.98223,274.20604 360.67722,273.41122 z M 366.09375,262.02663 C 366.29342,261.9005 365.50592,261.86893 364.34375,261.95647 L 362.23072,262.11564 L 362.23072,263.52528 L 362.23072,264.93492 L 363.98072,263.59544 C 364.94322,262.85873 365.89408,262.15277 366.09375,262.02663 z M 370.77184,262.75656 C 370.4093,262.16997 369.6715,261.69003 369.13228,261.69003 L 368.15187,261.69003 L 369.44129,263.08917 C 370.87695,264.64699 371.7979,264.41677 370.77184,262.75656 z M 375.68811,273.4396 C 375.3891,272.66039 375.27637,268.23547 375.43759,263.60644 L 375.73072,255.19003 L 377.23072,255.19003 L 378.73072,255.19003 L 379.23072,259.55731 L 379.73072,263.9246 L 381.63571,261.80731 C 382.68345,260.64281 384.10845,259.69003 384.80237,259.69003 C 387.19977,259.69003 386.96037,262.19783 384.35011,264.42773 L 381.73072,266.66543 L 384.87503,269.42773 C 387.91368,272.09721 388.38012,274.69003 385.8217,274.69003 C 385.13841,274.69003 383.49024,273.53072 382.1591,272.11379 L 379.73885,269.53756 L 379.2072,271.78965 C 378.57753,274.45699 376.45958,275.45 375.68811,273.4396 z M 382.73717,269.69676 L 379.86944,266.7035 L 382.30008,263.94676 L 384.73072,261.19003 L 382.16627,263.44003 C 380.75582,264.67753 379.06832,265.69003 378.41627,265.69003 C 377.76422,265.69003 377.23072,266.14003 377.23072,266.69003 C 377.23072,267.24003 377.82728,267.69003 378.55641,267.69003 C 379.28553,267.69003 380.93897,268.81503 382.23072,270.19003 C 383.52247,271.56503 384.8101,272.69003 385.09213,272.69003 C 385.37415,272.69003 384.31442,271.34306 382.73717,269.69676 z M 389.67595,273.4079 C 389.37025,272.61126 389.25751,268.18634 389.42543,263.57475 L 389.73072,255.19003 L 391.23072,255.19003 L 392.73072,255.19003 L 392.73072,264.60262 L 392.73072,274.01521 L 391.48125,274.43578 C 390.79404,274.66709 389.98165,274.20455 389.67595,273.4079 z M 395.67722,273.41122 C 395.37222,272.6164 395.25949,269.33749 395.4267,266.12477 L 395.73072,260.28345 L 399.99572,260.00173 L 404.26071,259.72002 L 406.29622,261.75553 L 408.33174,263.79105 L 408.03123,268.99054 L 407.73072,274.19003 L 406.23072,274.19003 L 404.73072,274.19003 L 404.23072,269.19003 L 403.73072,264.19003 L 401.73072,264.19003 L 399.73072,264.19003 L 399.23072,269.11248 L 398.73072,274.03494 L 397.48125,274.44564 C 396.79404,274.67153 395.98223,274.20604 395.67722,273.41122 z M 401.09375,262.02663 C 401.29342,261.9005 400.50592,261.86893 399.34375,261.95647 L 397.23072,262.11564 L 397.23072,263.52528 L 397.23072,264.93492 L 398.98072,263.59544 C 399.94322,262.85873 400.89408,262.15277 401.09375,262.02663 z M 405.77184,262.75656 C 405.4093,262.16997 404.6715,261.69003 404.13228,261.69003 L 403.15187,261.69003 L 404.44129,263.08917 C 405.87695,264.64699 406.7979,264.41677 405.77184,262.75656 z M 434.98072,273.60993 C 432.00397,271.87613 433.02819,270.81261 437.98072,270.49482 L 442.73072,270.19003 L 442.73072,268.72754 L 442.73072,267.26506 L 438.90596,266.36053 L 435.08121,265.45599 L 433.99545,263.07301 L 432.90969,260.69003 L 434.0362,258.21762 L 435.1627,255.74521 L 437.83714,255.07396 C 440.86414,254.31424 445.36892,255.59248 445.96214,257.37945 L 446.357,258.56886 L 442.04386,258.87945 L 437.73072,259.19003 L 437.73072,260.6067 L 437.73072,262.02336 L 441.93494,263.42477 L 446.13916,264.82618 L 446.75233,266.7581 C 448.57364,272.49656 440.81887,277.01034 434.98072,273.60993 z M 437.95989,272.08586 C 437.6276,271.75357 436.7651,271.71805 436.04322,272.00692 L 434.73072,272.53214 L 436.64739,272.61108 C 437.70155,272.6545 438.29218,272.41816 437.95989,272.08586 z M 444.23072,266.19003 C 443.54603,265.36503 442.25343,264.69666 441.35828,264.70477 L 439.73072,264.71951 L 442.23072,266.10672 C 445.54054,267.94329 445.691,267.94956 444.23072,266.19003 z M 463.98072,273.60993 C 461.05179,271.90398 462.01176,270.69003 466.28974,270.69003 L 470.34875,270.69003 L 469.81055,269.81919 C 469.51453,269.34023 467.9698,268.68785 466.3778,268.36945 C 464.78581,268.05105 463.19124,267.02952 462.83431,266.09938 L 462.18535,264.40822 L 463.73109,262.04913 L 465.27683,259.69003 L 468.19476,259.69003 C 469.79962,259.69003 471.39534,260.14737 471.7408,260.70634 C 472.6118,262.11564 474.18003,260.95355 475.26765,258.09289 C 476.36359,255.21036 478.2264,254.95752 478.91679,257.59758 C 479.19115,258.64673 480.27402,259.7296 481.32317,260.00396 C 483.82577,260.6584 483.7692,262.73645 481.23072,263.40028 L 479.23072,263.92329 L 479.23072,267.19003 L 479.23072,270.45677 L 481.33608,271.00733 L 483.44143,271.55789 L 483.00775,272.87396 C 482.35877,274.84337 478.70386,275.02031 476.85537,273.17182 L 475.23072,271.54717 L 475.23072,267.67762 C 475.23072,263.12076 474.96226,262.92512 469.73072,263.66957 L 465.73072,264.23877 L 469.43294,265.52618 L 473.13516,266.8136 L 473.80997,268.93974 L 474.48479,271.06588 L 472.24697,272.87796 C 469.76711,274.88602 466.64612,275.16239 463.98072,273.60993 z M 472.07911,270.22699 C 472.45314,268.29743 470.66516,266.69071 468.23072,266.76873 L 466.73072,266.8168 L 468.98072,267.72119 C 471.30431,268.65516 472.00964,271.13707 470.20572,272.0317 C 469.64197,272.31128 469.75447,272.42399 470.45572,272.28216 C 471.15697,272.14034 471.8875,271.21551 472.07911,270.22699 z M 479.23072,272.24905 C 479.23072,272.00651 478.78072,271.52995 478.23072,271.19003 C 477.68072,270.85011 477.23072,271.04855 477.23072,271.63101 C 477.23072,272.21347 477.68072,272.69003 478.23072,272.69003 C 478.78072,272.69003 479.23072,272.49159 479.23072,272.24905 z M 465.55362,265.08911 L 464.93929,263.48818 L 466.335,262.60442 L 467.73072,261.72066 L 466.53974,261.70534 C 465.8847,261.69692 465.05732,262.16158 464.70112,262.73792 C 464.04436,263.80059 464.75122,266.69003 465.66795,266.69003 C 465.94295,266.69003 465.8915,265.96961 465.55362,265.08911 z M 478.23072,261.69003 C 478.23072,261.14003 477.78072,260.69003 477.23072,260.69003 C 476.68072,260.69003 476.23072,261.14003 476.23072,261.69003 C 476.23072,262.24003 476.68072,262.69003 477.23072,262.69003 C 477.78072,262.69003 478.23072,262.24003 478.23072,261.69003 z M 486.68527,272.23548 L 484.23072,269.78094 L 484.23072,267.19003 L 484.23072,264.59912 L 486.68527,262.14458 L 489.13981,259.69003 L 491.68527,259.69003 C 493.08527,259.69003 495.15839,260.6177 496.29221,261.75152 L 498.35371,263.81302 L 498.04221,266.00152 L 497.73072,268.19003 L 492.95619,268.49582 L 488.18165,268.80162 L 488.7652,269.74582 C 489.08616,270.26514 491.1222,270.69003 493.28974,270.69003 C 497.5332,270.69003 498.41153,271.98771 495.29646,273.65485 C 492.16834,275.32897 489.30715,274.85737 486.68527,272.23548 z M 488.48072,270.8567 C 487.51822,269.84836 486.55409,269.16249 486.33822,269.33253 C 485.74749,269.79784 488.3446,272.69003 489.35316,272.69003 C 489.83582,272.69003 489.44322,271.86503 488.48072,270.8567 z M 489.00621,262.94003 C 489.88993,262.25253 490.16697,261.69003 489.62185,261.69003 C 487.9236,261.69003 486.22547,263.99731 486.34672,266.14003 L 486.46272,268.19003 L 486.93108,266.19003 C 487.18868,265.09003 488.12249,263.62753 489.00621,262.94003 z M 495.20282,263.15641 C 494.53347,262.3499 493.47843,261.70371 492.85828,261.72044 C 492.23812,261.73716 492.51822,262.20952 493.48072,262.77013 C 494.44322,263.33073 495.26625,264.55455 495.30967,265.48972 L 495.38861,267.19003 L 495.90421,265.90641 C 496.18778,265.20042 495.87216,263.96292 495.20282,263.15641 z M 492.48072,264.02775 C 491.79322,263.75034 490.66822,263.75034 489.98072,264.02775 C 489.29322,264.30516 489.85572,264.53214 491.23072,264.53214 C 492.60572,264.53214 493.16822,264.30516 492.48072,264.02775 z M 500.67722,273.41122 C 500.37222,272.6164 500.25949,269.33749 500.4267,266.12477 L 500.73072,260.28345 L 505.13508,259.9924 C 507.55748,259.83233 510.04757,260.12307 510.66862,260.63849 L 511.7978,261.57563 L 513.26426,260.64814 C 515.71393,259.09881 519.03775,259.57644 520.51854,261.69057 L 521.91977,263.6911 L 523.73023,261.69057 L 525.5407,259.69003 L 528.18571,259.69003 C 530.75268,259.69003 533.23072,261.26182 533.23072,262.89003 C 533.23072,263.33003 531.54322,263.73376 529.48072,263.78721 L 525.73072,263.88439 L 529.45306,265.41238 L 533.1754,266.94037 L 533.83009,269.00312 L 534.48479,271.06588 L 532.24697,272.87796 C 529.81332,274.84861 526.57723,275.19479 524.26426,273.73192 L 522.7978,272.80443 L 521.47188,273.90485 L 520.14596,275.00527 L 519.25147,274.09765 C 518.7595,273.59846 518.21607,271.16503 518.04385,268.69003 L 517.73072,264.19003 L 515.73072,264.19003 L 513.73072,264.19003 L 513.23072,269.19003 L 512.73072,274.19003 L 511.23072,274.19003 L 509.73072,274.19003 L 509.23072,269.19003 L 508.73072,264.19003 L 506.73072,264.19003 L 504.73072,264.19003 L 504.23072,269.11248 L 503.73072,274.03494 L 502.48125,274.44564 C 501.79404,274.67153 500.98223,274.20604 500.67722,273.41122 z M 532.07911,270.22699 C 532.45314,268.29743 530.66516,266.69071 528.23072,266.76873 L 526.73072,266.8168 L 528.98072,267.72119 C 531.30431,268.65516 532.00964,271.13707 530.20572,272.0317 C 529.64197,272.31128 529.75447,272.42399 530.45572,272.28216 C 531.15697,272.14034 531.8875,271.21551 532.07911,270.22699 z M 529.73072,269.69003 C 529.3908,269.14003 528.27139,268.69003 527.24313,268.69003 C 526.21488,268.69003 524.66643,267.98289 523.80215,267.1186 L 522.23072,265.54717 L 522.23072,268.1186 L 522.23072,270.69003 L 526.28974,270.69003 L 530.34875,270.69003 L 529.73072,269.69003 z M 525.55362,265.08911 L 524.93929,263.48818 L 526.335,262.60442 L 527.73072,261.72066 L 526.53974,261.70534 C 525.8847,261.69692 525.05732,262.16158 524.70112,262.73792 C 524.04436,263.80059 524.75122,266.69003 525.66795,266.69003 C 525.94295,266.69003 525.8915,265.96961 525.55362,265.08911 z M 506.09375,262.02663 C 506.29342,261.9005 505.50592,261.86893 504.34375,261.95647 L 502.23072,262.11564 L 502.23072,263.52528 L 502.23072,264.93492 L 503.98072,263.59544 C 504.94322,262.85873 505.89408,262.15277 506.09375,262.02663 z M 514.94739,262.173 C 515.06655,262.12737 513.64113,262.09003 511.77977,262.09003 L 508.39549,262.09003 L 510.06027,263.30735 L 511.72505,264.52466 L 513.22789,263.39031 C 514.05444,262.76642 514.82822,262.21863 514.94739,262.173 z M 519.77184,262.75656 C 519.4093,262.16997 518.6715,261.69003 518.13228,261.69003 L 517.15187,261.69003 L 518.44129,263.08917 C 519.87695,264.64699 520.7979,264.41677 519.77184,262.75656 z M 311.7117,267.65926 C 310.61846,265.89035 312.68151,264.49876 315.8589,264.86185 L 318.73072,265.19003 L 318.73072,266.69003 L 318.73072,268.19003 L 315.57457,268.49639 L 312.41842,268.80275 L 311.7117,267.65926 z M 542.7117,267.65926 C 541.61846,265.89035 543.68151,264.49876 546.8589,264.86185 L 549.73072,265.19003 L 549.73072,266.69003 L 549.73072,268.19003 L 546.57457,268.49639 L 543.41842,268.80275 L 542.7117,267.65926 z M 656.62052,216.94003 C 655.78155,209.97241 654.5412,206.35144 648.99887,194.69003 L 644.00852,184.19003 L 639.1351,178.19003 C 633.2226,170.91074 623.98879,162.56174 615.19129,156.54059 L 608.65186,152.0649 L 596.69129,147.62747 L 584.73072,143.19003 L 389.23072,143.19003 L 193.73072,143.19003 L 184.23072,146.86003 C 179.00572,148.87853 173.36774,151.12853 171.70187,151.86003 C 165.48766,154.58876 152.11306,164.99872 145.22413,172.46867 L 138.80011,180.31672 L 133.93983,187.69003 C 127.92586,198.5234 123.64903,209.47382 122.88158,216.00359 L 122.21325,221.69003 L 389.70285,221.69003 L 657.19246,221.69003 L 656.62052,216.94003 z M 315.6915,201.44843 C 315.4025,200.6953 315.29309,194.47905 315.44838,187.63456 L 315.73072,175.19003 L 319.23072,175.19003 L 322.73072,175.19003 L 323.03551,179.94003 L 323.3403,184.69003 L 327.73072,184.69003 L 332.12114,184.69003 L 332.42593,179.94003 L 332.73072,175.19003 L 336.23072,175.19003 L 339.73072,175.19003 L 339.73072,188.69003 L 339.73072,202.19003 L 336.23072,202.19003 L 332.73072,202.19003 L 332.42846,196.94003 L 332.1262,191.69003 L 327.73072,191.69003 L 323.33524,191.69003 L 323.03298,196.94003 L 322.73072,202.19003 L 319.47384,202.5039 L 316.21697,202.81777 L 315.6915,201.44843 z M 321.42846,195.44003 L 321.73072,190.19003 L 327.73072,190.19003 L 333.73072,190.19003 L 334.03298,195.44003 L 334.33524,200.69003 L 336.28298,200.69003 L 338.23072,200.69003 L 338.23072,188.69003 L 338.23072,176.69003 L 336.28551,176.69003 L 334.3403,176.69003 L 334.03551,181.44003 L 333.73072,186.19003 L 327.73072,186.19003 L 321.73072,186.19003 L 321.42593,181.44003 L 321.12114,176.69003 L 319.17593,176.69003 L 317.23072,176.69003 L 317.23072,188.69003 L 317.23072,200.69003 L 319.17846,200.69003 L 321.1262,200.69003 L 321.42846,195.44003 z M 344.68148,201.42231 C 344.39799,200.68354 344.29309,194.47905 344.44838,187.63456 L 344.73072,175.19003 L 354.23072,175.19003 L 363.73072,175.19003 L 363.73072,178.19003 L 363.73072,181.19003 L 357.98072,181.48993 L 352.23072,181.78984 L 352.23072,183.18767 L 352.23072,184.58551 L 357.48072,184.88777 L 362.73072,185.19003 L 362.73072,188.19003 L 362.73072,191.19003 L 357.48072,191.49229 L 352.23072,191.79455 L 352.23072,193.69239 L 352.23072,195.59022 L 357.98072,195.89013 L 363.73072,196.19003 L 363.73072,199.19003 L 363.73072,202.19003 L 354.46382,202.47778 L 345.19692,202.76553 L 344.68148,201.42231 z M 362.23072,199.23993 L 362.23072,197.78984 L 356.48072,197.48993 L 350.73072,197.19003 L 350.73072,193.69003 L 350.73072,190.19003 L 355.98072,189.88777 L 361.23072,189.58551 L 361.23072,188.19003 L 361.23072,186.79455 L 355.98072,186.49229 L 350.73072,186.19003 L 350.73072,183.19003 L 350.73072,180.19003 L 356.48072,179.89013 L 362.23072,179.59022 L 362.23072,178.14013 L 362.23072,176.69003 L 354.23072,176.69003 L 346.23072,176.69003 L 346.23072,188.69003 L 346.23072,200.69003 L 354.23072,200.69003 L 362.23072,200.69003 L 362.23072,199.23993 z M 368.6915,201.44843 C 368.4025,200.6953 368.29309,194.47905 368.44838,187.63456 L 368.73072,175.19003 L 373.09338,175.19003 L 377.45605,175.19003 L 380.01989,181.44003 C 381.43001,184.87753 382.87488,187.69003 383.23072,187.69003 C 383.58656,187.69003 385.03143,184.87753 386.44155,181.44003 L 389.00539,175.19003 L 393.36806,175.19003 L 397.73072,175.19003 L 397.73072,188.69003 L 397.73072,202.19003 L 394.23072,202.19003 L 390.73072,202.19003 L 390.41126,195.19003 L 390.0918,188.19003 L 387.91126,192.69003 L 385.73072,197.19003 L 383.23072,197.19003 L 380.73072,197.19003 L 378.55018,192.69003 L 376.36964,188.19003 L 376.05018,195.19003 L 375.73072,202.19003 L 372.47384,202.5039 L 369.21697,202.81777 L 368.6915,201.44843 z M 374.30101,191.94003 L 374.37129,183.19003 L 375.23072,185.19003 L 376.09015,187.19003 L 376.21239,185.19003 L 376.33464,183.19003 L 378.95919,189.44003 L 381.58374,195.69003 L 383.23072,195.69003 L 384.8777,195.69003 L 387.50225,189.44003 L 390.1268,183.19003 L 390.24905,185.19003 L 390.37129,187.19003 L 391.23072,185.19003 L 392.09015,183.19003 L 392.16043,191.94003 L 392.23072,200.69003 L 394.23072,200.69003 L 396.23072,200.69003 L 396.23072,188.69003 L 396.23072,176.69003 L 393.37961,176.69003 L 390.52851,176.69003 L 387.43668,183.69003 C 385.73617,187.54003 383.84349,190.69003 383.23072,190.69003 C 382.61795,190.69003 380.72527,187.54003 379.02476,183.69003 L 375.93293,176.69003 L 373.08183,176.69003 L 370.23072,176.69003 L 370.23072,188.69003 L 370.23072,200.69003 L 372.23072,200.69003 L 374.23072,200.69003 L 374.30101,191.94003 z M 402.6915,201.44843 C 402.4025,200.6953 402.29309,194.47905 402.44838,187.63456 L 402.73072,175.19003 L 406.23072,175.19003 L 409.73072,175.19003 L 409.73072,188.69003 L 409.73072,202.19003 L 406.47384,202.5039 L 403.21697,202.81777 L 402.6915,201.44843 z M 408.23072,188.69003 L 408.23072,176.69003 L 406.23072,176.69003 L 404.23072,176.69003 L 404.23072,188.69003 L 404.23072,200.69003 L 406.23072,200.69003 L 408.23072,200.69003 L 408.23072,188.69003 z M 421.94478,202.07076 C 421.55205,201.67802 421.23072,196.95886 421.23072,191.58373 L 421.23072,181.81076 L 417.48072,181.5004 L 413.73072,181.19003 L 413.73072,178.19003 L 413.73072,175.19003 L 425.23072,175.19003 L 436.73072,175.19003 L 436.73072,178.19003 L 436.73072,181.19003 L 433.01506,181.49835 L 429.2994,181.80667 L 429.01506,191.99835 L 428.73072,202.19003 L 425.69478,202.48742 C 424.02501,202.65099 422.33751,202.46349 421.94478,202.07076 z M 427.44574,190.44003 L 427.73072,180.19003 L 431.48072,179.87967 L 435.23072,179.5693 L 435.23072,178.12967 L 435.23072,176.69003 L 425.23072,176.69003 L 415.23072,176.69003 L 415.23072,178.12967 L 415.23072,179.5693 L 418.98072,179.87967 L 422.73072,180.19003 L 423.0157,190.44003 L 423.30069,200.69003 L 425.23072,200.69003 L 427.16075,200.69003 L 427.44574,190.44003 z M 446.54363,201.63869 C 442.49971,200.4038 439.57861,196.70864 438.74477,191.77322 L 438.09298,187.91528 L 439.18685,183.85294 L 440.28072,179.79061 L 443.00572,177.86466 C 446.5577,175.35422 451.17596,174.40153 455.68919,175.24822 L 459.31533,175.92848 L 462.21451,178.82767 L 465.1137,181.72685 L 465.73868,185.95844 L 466.36366,190.19003 L 465.04719,194.09452 C 462.78846,200.79364 454.64674,204.11314 446.54363,201.63869 z M 461.06976,197.30554 L 463.73072,194.64458 L 463.73072,188.69003 L 463.73072,182.73549 L 460.95799,179.96276 L 458.18527,177.19003 L 452.23072,177.19003 L 446.27617,177.19003 L 443.50345,179.96276 L 440.73072,182.73549 L 440.73072,188.60777 L 440.73072,194.48006 L 442.73072,196.70307 C 445.60042,199.89277 448.07852,200.71952 453.56976,200.31924 L 458.40879,199.96651 L 461.06976,197.30554 z M 447.4272,196.03405 L 445.16989,194.19003 L 444.61948,190.69003 C 444.31675,188.76503 444.54736,185.94446 445.13196,184.4221 L 446.19485,181.65416 L 448.88651,180.6308 C 450.36692,180.06795 452.87717,179.89274 454.46484,180.24145 L 457.35151,180.87547 L 458.92328,184.1715 L 460.49504,187.46753 L 459.83642,190.9783 C 459.04771,195.18249 457.52733,196.60536 453.04685,197.33244 L 449.68451,197.87807 L 447.4272,196.03405 z M 456.67402,193.46752 C 457.5302,192.24515 458.23072,190.09527 458.23072,188.69003 C 458.23072,187.28479 457.5302,185.13492 456.67402,183.91254 L 455.11731,181.69003 L 452.23072,181.69003 L 449.34413,181.69003 L 447.78742,183.91254 C 445.7552,186.81394 445.80207,191.5589 447.88571,193.86129 L 449.5407,195.69003 L 452.329,195.69003 L 455.11731,195.69003 L 456.67402,193.46752 z M 124.92793,200.17343 C 132.34459,181.8762 143.21694,167.90128 158.59065,156.90457 L 167.74617,151.21613 L 175.85839,147.41682 C 180.73817,145.50139 185.77713,143.6132 187.05608,143.22082 C 188.33503,142.82845 189.1332,142.25917 188.82978,141.95576 C 188.14361,141.26958 176.08433,145.26108 170.83585,147.91157 C 148.6938,159.09336 125.86726,185.49767 121.74739,204.69404 C 120.68894,209.62581 121.65039,208.25928 124.92793,200.17343 z M 588.23072,140.58249 C 588.23072,138.93701 562.25989,138.69003 389.23072,138.69003 C 216.20155,138.69003 190.23072,138.93701 190.23072,140.58249 C 190.23072,140.91664 279.78072,141.19003 389.23072,141.19003 C 498.68072,141.19003 588.23072,140.91664 588.23072,140.58249 z"
       id="path2430"
       sodipodi:nodetypes="cccccccccccccccccccccccccccccccccccccccccccccccccccccccccccccccccccccccccccsccccssscccccsscccccscccccsscccccccccccccccscccccsssssscccsscccccccccccccccccccccsscccccssccccssccccccccsccssccssccccsccccccccccccccsscccccccssssssccccccccccccccccssccccsccccccccccccccccccccccccccssscccccccccccccccccccscccccccccccccccsccccccsscccccccccccccccccccccccccccccccccccccccccccccscccscccccccccssssscccccccccccccccccccccccccccccccccccccccccccccccccccccccccccccccccccccccccccccscccccssssccccccccccccccccccccccssccsssccccccssccssscccccccccccccccssccssccscccccsscccccsscccccccccccccsccccccccccccccccccccccccccccccccssccsccccccccccccsscccccccccccccccccccccccccccccccccccccccccccccccsccccccccccccccccccccccccccccccccccccccccccccccccccccccccccccccccccccccccccccccccccccccccccccccccccccccccccccccccccccsccccccccccccccccccccccccccccccccccccccccccccccscccccccccccccccccccccccccccccccccccccccccccccccccccccccccccccccccccccccccccccccccccccccccccccccccccccccccccsccccccccccccccssssccsssc" />
    <rect
       style="fill:#aa0000;fill-opacity:1;stroke:none;stroke-width:0.98282242;stroke-linecap:round;stroke-linejoin:round;stroke-miterlimit:13.05000019;stroke-dasharray:3.93128967, 3.93128967;stroke-dashoffset:0;stroke-opacity:1"
       id="rect2443"
       width="125.48894"
       height="2.778353"
       x="158.82918"
       y="476.78009"
       rx="80"
       ry="2.778353" />
    <image
       y="258.08304"
       x="80.886505"
       id="image2392"
       height="205"
       width="587"
       sodipodi:absref="/home/hendrik/pastedpic_04292009_180419.png"
       xlink:href="pastedpic_04292009_180419.png" />
    <g
       id="g3291"
       inkscape:export-filename="/home/hendrik/logotiny.png"
       inkscape:export-xdpi="15.44"
       inkscape:export-ydpi="15.44">
      <rect
         rx="103.056"
         ry="114.058"
         y="571.18396"
         x="82.626671"
         height="201.52423"
         width="582.987"
         id="rect2441"
         style="opacity:1;fill:#17365d;fill-opacity:1;stroke:none;stroke-width:0.98282241999999997;stroke-linecap:round;stroke-linejoin:round;stroke-miterlimit:13.05000019000000044;stroke-dasharray:3.93128966999999996, 3.93128966999999996;stroke-dashoffset:0;stroke-opacity:1" />
      <g
         transform="translate(0.8136826,313.23029)"
         id="g3279">
        <rect
           style="fill:#17365d;fill-opacity:1;stroke:#ffffff;stroke-width:4.14016485;stroke-linecap:round;stroke-linejoin:round;stroke-miterlimit:13.05000019;stroke-dasharray:none;stroke-dashoffset:0;stroke-opacity:1"
           id="rect2445"
           width="543.95392"
           height="171.19159"
           x="101.32953"
           y="273.12"
           rx="102.56654"
           ry="85.347694" />
        <rect
           style="fill:#ffffff;fill-opacity:1;stroke:none;stroke-width:4;stroke-linecap:round;stroke-linejoin:round;stroke-miterlimit:13.05000019;stroke-dasharray:none;stroke-dashoffset:0;stroke-opacity:1"
           id="rect3217"
           width="542.70496"
           height="4"
           x="103.11167"
           y="357.92001" />
      </g>
    </g>
    <text
       xml:space="preserve"
       style="font-size:56;font-style:normal;font-variant:normal;font-weight:normal;font-stretch:normal;fill:#ffffff;fill-opacity:1;stroke:none;stroke-width:1px;stroke-linecap:butt;stroke-linejoin:miter;stroke-opacity:1;font-family:Colaborate-Bold;-inkscape-font-specification:Colaborate-Bold"
       x="343.55826"
       y="647.45416"
       id="text3283"
       inkscape:export-filename="/home/hendrik/logotiny.png"
       inkscape:export-xdpi="15.44"
       inkscape:export-ydpi="15.44"><tspan
         sodipodi:role="line"
         id="tspan3285"
         x="343.55826"
         y="647.45416">Hemito</tspan></text>
    <text
       xml:space="preserve"
       style="font-size:28px;font-style:normal;font-variant:normal;font-weight:normal;font-stretch:normal;fill:#ffffff;fill-opacity:1;stroke:none;stroke-width:1px;stroke-linecap:butt;stroke-linejoin:miter;stroke-opacity:1;font-family:ColaborateLight;-inkscape-font-specification:ColaborateLight"
       x="345.96625"
       y="715.55237"
       id="text3287"
       inkscape:export-filename="/home/hendrik/logotiny.png"
       inkscape:export-xdpi="15.44"
       inkscape:export-ydpi="15.44"><tspan
         sodipodi:role="line"
         id="tspan3289"
         x="345.96625"
         y="715.55237">Banking Systems</tspan></text>
  </g>
</svg>
