<?xml version="1.0" encoding="UTF-8" standalone="no"?>
<!-- Created with Inkscape (http://www.inkscape.org/) -->
<svg
   xmlns:dc="http://purl.org/dc/elements/1.1/"
   xmlns:cc="http://creativecommons.org/ns#"
   xmlns:rdf="http://www.w3.org/1999/02/22-rdf-syntax-ns#"
   xmlns:svg="http://www.w3.org/2000/svg"
   xmlns="http://www.w3.org/2000/svg"
   xmlns:sodipodi="http://sodipodi.sourceforge.net/DTD/sodipodi-0.dtd"
   xmlns:inkscape="http://www.inkscape.org/namespaces/inkscape"
   width="524.40942"
   height="744.09448"
   id="svg2"
   sodipodi:version="0.32"
   inkscape:version="0.46"
   version="1.0"
   sodipodi:docname="robi2.svg"
   inkscape:output_extension="org.inkscape.output.svg.inkscape">
  <defs
     id="defs4">
    <marker
       inkscape:stockid="Tail"
       orient="auto"
       refY="0.0"
       refX="0.0"
       id="Tail"
       style="overflow:visible">
      <g
         id="g9649"
         transform="scale(-1.2)">
        <path
           id="path9651"
           d="M -3.8048674,-3.9585227 L 0.54352094,0"
           style="fill:none;fill-rule:evenodd;stroke:#000000;stroke-width:0.8;marker-start:none;marker-end:none;stroke-linecap:round" />
        <path
           id="path9653"
           d="M -1.2866832,-3.9585227 L 3.0617053,0"
           style="fill:none;fill-rule:evenodd;stroke:#000000;stroke-width:0.8;marker-start:none;marker-end:none;stroke-linecap:round" />
        <path
           id="path9655"
           d="M 1.3053582,-3.9585227 L 5.6537466,0"
           style="fill:none;fill-rule:evenodd;stroke:#000000;stroke-width:0.8;marker-start:none;marker-end:none;stroke-linecap:round" />
        <path
           id="path9657"
           d="M -3.8048674,4.1775838 L 0.54352094,0.21974226"
           style="fill:none;fill-rule:evenodd;stroke:#000000;stroke-width:0.8;marker-start:none;marker-end:none;stroke-linecap:round" />
        <path
           id="path9659"
           d="M -1.2866832,4.1775838 L 3.0617053,0.21974226"
           style="fill:none;fill-rule:evenodd;stroke:#000000;stroke-width:0.8;marker-start:none;marker-end:none;stroke-linecap:round" />
        <path
           id="path9661"
           d="M 1.3053582,4.1775838 L 5.6537466,0.21974226"
           style="fill:none;fill-rule:evenodd;stroke:#000000;stroke-width:0.8;marker-start:none;marker-end:none;stroke-linecap:round" />
      </g>
    </marker>
    <marker
       inkscape:stockid="DotL"
       orient="auto"
       refY="0.0"
       refX="0.0"
       id="DotL"
       style="overflow:visible">
      <path
         id="path9675"
         d="M -2.5,-1.0 C -2.5,1.7600000 -4.7400000,4.0 -7.5,4.0 C -10.260000,4.0 -12.5,1.7600000 -12.5,-1.0 C -12.5,-3.7600000 -10.260000,-6.0 -7.5,-6.0 C -4.7400000,-6.0 -2.5,-3.7600000 -2.5,-1.0 z "
         style="fill-rule:evenodd;stroke:#000000;stroke-width:1.0pt;marker-start:none;marker-end:none"
         transform="scale(0.8) translate(7.4, 1)" />
    </marker>
    <marker
       inkscape:stockid="Arrow1Lstart"
       orient="auto"
       refY="0.0"
       refX="0.0"
       id="Arrow1Lstart"
       style="overflow:visible">
      <path
         id="path3770"
         d="M 0.0,0.0 L 5.0,-5.0 L -12.5,0.0 L 5.0,5.0 L 0.0,0.0 z "
         style="fill-rule:evenodd;stroke:#000000;stroke-width:1.0pt;marker-start:none"
         transform="scale(0.8) translate(12.5,0)" />
    </marker>
    <marker
       inkscape:stockid="Arrow2Lend"
       orient="auto"
       refY="0.0"
       refX="0.0"
       id="Arrow2Lend"
       style="overflow:visible;">
      <path
         id="path3903"
         style="font-size:12.0;fill-rule:evenodd;stroke-width:0.62500000;stroke-linejoin:round;"
         d="M 8.7185878,4.0337352 L -2.2072895,0.016013256 L 8.7185884,-4.0017078 C 6.9730900,-1.6296469 6.9831476,1.6157441 8.7185878,4.0337352 z "
         transform="scale(1.1) rotate(180) translate(1,0)" />
    </marker>
    <inkscape:perspective
       sodipodi:type="inkscape:persp3d"
       inkscape:vp_x="0 : 526.18109 : 1"
       inkscape:vp_y="0 : 1000 : 0"
       inkscape:vp_z="744.09448 : 526.18109 : 1"
       inkscape:persp3d-origin="372.04724 : 350.78739 : 1"
       id="perspective10" />
    <inkscape:perspective
       id="perspective2529"
       inkscape:persp3d-origin="372.04724 : 350.78739 : 1"
       inkscape:vp_z="744.09448 : 526.18109 : 1"
       inkscape:vp_y="0 : 1000 : 0"
       inkscape:vp_x="0 : 526.18109 : 1"
       sodipodi:type="inkscape:persp3d" />
  </defs>
  <sodipodi:namedview
     id="base"
     pagecolor="#ffffff"
     bordercolor="#666666"
     borderopacity="1.0"
     gridtolerance="10000"
     guidetolerance="10"
     objecttolerance="10"
     inkscape:pageopacity="0.0"
     inkscape:pageshadow="2"
     inkscape:zoom="1"
     inkscape:cx="254.06715"
     inkscape:cy="506.08123"
     inkscape:document-units="px"
     inkscape:current-layer="layer1"
     showgrid="false"
     inkscape:connector-spacing="3"
     inkscape:window-width="1440"
     inkscape:window-height="840"
     inkscape:window-x="-5"
     inkscape:window-y="35" />
  <metadata
     id="metadata7">
    <rdf:RDF>
      <cc:Work
         rdf:about="">
        <dc:format>image/svg+xml</dc:format>
        <dc:type
           rdf:resource="http://purl.org/dc/dcmitype/StillImage" />
      </cc:Work>
    </rdf:RDF>
  </metadata>
  <g
     inkscape:label="Layer 1"
     inkscape:groupmode="layer"
     id="layer1">
    <rect
       style="fill:none;fill-opacity:0.97254901999999999;stroke-width:160.80000304999998662;stroke-linecap:round;stroke-linejoin:round;stroke-miterlimit:4;stroke-dasharray:none"
       id="rect2383"
       width="415.90909"
       height="677.27271"
       x="31.818182"
       y="40.68539"
       rx="5"
       ry="5" />
    <g
       id="g3267"
       transform="translate(12.560684,0)">
      <a
         style="font-size:24px;fill:#5f8fcb;fill-opacity:1"
         transform="matrix(1.0000037,0,0,1,-0.2087277,-18.18182)"
         id="a2395">
        <rect
           style="font-size:24px;fill:#5f8fcb;fill-opacity:1;stroke-width:160.80000305;stroke-linecap:round;stroke-linejoin:round;stroke-miterlimit:4;stroke-dasharray:none"
           id="rect2385"
           width="120.45455"
           height="40.909092"
           x="51.136364"
           y="71.36721"
           ry="4.3636365"
           rx="5.8888888" />
      </a>
      <flowRoot
         transform="matrix(1.0000037,0,0,1,84.102001,-63.711885)"
         style="font-size:22px;font-style:normal;font-weight:normal;fill:#000000;fill-opacity:1;stroke:none;stroke-width:1px;stroke-linecap:butt;stroke-linejoin:miter;stroke-opacity:1;font-family:Bitstream Vera Sans"
         id="flowRoot2387"
         xml:space="preserve"><flowRegion
           id="flowRegion2389"><rect
             style="font-size:22px"
             y="123.63994"
             x="-29.545454"
             height="122.72727"
             width="240.90909"
             id="rect2391" /></flowRegion><flowPara
           id="flowPara2393">Bankomat</flowPara></flowRoot>    </g>
    <a
       style="font-size:24px;fill:#5f8fcb;fill-opacity:1"
       transform="translate(256.60964,-18.18182)"
       id="a2424">
      <rect
         style="font-size:24px;fill:#5f8fcb;stroke-width:160.80000304999998662;stroke-linecap:round;stroke-linejoin:round;stroke-miterlimit:4;stroke-dasharray:none;fill-opacity:1"
         id="rect2426"
         width="120.45455"
         height="40.909092"
         x="51.136364"
         y="71.36721"
         ry="4.3636365"
         rx="5.8888888" />
    </a>
    <flowRoot
       transform="translate(368.81752,-63.711885)"
       style="font-size:22px;font-style:normal;font-weight:normal;fill:#000000;fill-opacity:1;stroke:none;stroke-width:1px;stroke-linecap:butt;stroke-linejoin:miter;stroke-opacity:1;font-family:Bitstream Vera Sans"
       id="flowRoot2428"
       xml:space="preserve"><flowRegion
         id="flowRegion2430"><rect
           style="font-size:22px"
           y="123.63994"
           x="-29.545454"
           height="122.72727"
           width="240.90909"
           id="rect2432" /></flowRegion><flowPara
         id="flowPara2434">Bank</flowPara></flowRoot>    <rect
       style="fill:#dadada;stroke:none;stroke-width:1;stroke-linecap:butt;stroke-linejoin:round;stroke-miterlimit:22.10000038000000089;stroke-dasharray:none;stroke-dashoffset:9;stroke-opacity:1;fill-opacity:1"
       id="rect2440"
       width="59.925091"
       height="19.475655"
       x="93.753464"
       y="103.43233"
       rx="2.1917808"
       ry="1.925926" />
    <flowRoot
       xml:space="preserve"
       id="flowRoot2454"
       style="font-size:16px;font-style:normal;font-weight:normal;fill:#000000;fill-opacity:1;stroke:none;stroke-width:1px;stroke-linecap:butt;stroke-linejoin:miter;stroke-opacity:1;font-family:Bitstream Vera Sans"
       transform="translate(40.11054,-12.223263)"><flowRegion
         id="flowRegion2456"><rect
           id="rect2458"
           width="109.09091"
           height="47.727272"
           x="60.227272"
           y="114.54903"
           style="font-size:16px" /></flowRegion><flowPara
         id="flowPara2460">Setup</flowPara></flowRoot>    <rect
       style="fill:#dadada;stroke:none;stroke-width:1;stroke-linecap:butt;stroke-linejoin:round;stroke-miterlimit:22.10000038000000089;stroke-dasharray:none;stroke-dashoffset:9;stroke-opacity:1;fill-opacity:1"
       id="rect2442"
       width="78.651695"
       height="20.224718"
       x="84.39016"
       y="145.94168"
       rx="3.4426227"
       ry="1.8409091" />
    <text
       xml:space="preserve"
       style="font-size:16px;font-style:normal;font-weight:normal;fill:#000000;fill-opacity:1;stroke:none;stroke-width:1px;stroke-linecap:butt;stroke-linejoin:miter;stroke-opacity:1;font-family:Bitstream Vera Sans"
       x="88.633972"
       y="160.46811"
       id="text2462"><tspan
         sodipodi:role="line"
         id="tspan2464"
         x="88.633972"
         y="160.46811">waiting()</tspan></text>
    <rect
       style="fill:#dadada;stroke:none;stroke-width:1;stroke-linecap:butt;stroke-linejoin:round;stroke-miterlimit:22.10000038000000089;stroke-dasharray:none;stroke-dashoffset:9;stroke-opacity:1;fill-opacity:1"
       id="rect2444"
       width="78.277153"
       height="25.842697"
       x="84.577431"
       y="186.0166"
       rx="3.1666667"
       ry="2.915493" />
    <text
       xml:space="preserve"
       style="font-size:16px;font-style:normal;font-weight:normal;fill:#000000;fill-opacity:1;stroke:none;stroke-width:1px;stroke-linecap:butt;stroke-linejoin:miter;stroke-opacity:1;font-family:Bitstream Vera Sans"
       x="87.446472"
       y="203.96138"
       id="text2466"><tspan
         sodipodi:role="line"
         id="tspan2468"
         x="87.446472"
         y="203.96138">readPin()</tspan></text>
    <rect
       style="fill:#dadada;stroke:none;stroke-width:1;stroke-linecap:butt;stroke-linejoin:round;stroke-miterlimit:22.10000038000000089;stroke-dasharray:none;stroke-dashoffset:9;stroke-opacity:1;fill-opacity:1"
       id="rect2446"
       width="126.59176"
       height="20.599251"
       x="60.420128"
       y="231.52222"
       rx="3.2815535"
       ry="1.8131868" />
    <text
       xml:space="preserve"
       style="font-size:16px;font-style:normal;font-weight:normal;fill:#000000;fill-opacity:1;stroke:none;stroke-width:1px;stroke-linecap:butt;stroke-linejoin:miter;stroke-opacity:1;font-family:Bitstream Vera Sans"
       x="62.489449"
       y="246.84528"
       id="text2470"><tspan
         sodipodi:role="line"
         id="tspan2472"
         x="62.489449"
         y="246.84528">selectAmount()</tspan></text>
    <g
       id="g11572"
       transform="translate(4.5531913,0)">
      <rect
         ry="3"
         rx="3.3788514"
         y="397.27802"
         x="49.03371"
         height="22.47191"
         width="93.646065"
         id="rect9242"
         style="fill:#dadada;fill-opacity:1;stroke:none;stroke-width:1;stroke-linecap:round;stroke-linejoin:round;stroke-miterlimit:22.10000038;stroke-dasharray:12, 12;stroke-dashoffset:0;stroke-opacity:1" />
      <text
         id="text2478"
         y="414.47882"
         x="52.247368"
         style="font-size:16px;font-style:normal;font-weight:normal;fill:#000000;fill-opacity:1;stroke:none;stroke-width:1px;stroke-linecap:butt;stroke-linejoin:miter;stroke-opacity:1;font-family:Bitstream Vera Sans"
         xml:space="preserve"><tspan
           y="414.47882"
           x="52.247368"
           id="tspan2480"
           sodipodi:role="line">distribute()</tspan></text>
    </g>
    <rect
       style="fill:#dadada;stroke:none;stroke-width:1;stroke-linecap:round;stroke-linejoin:round;stroke-miterlimit:22.10000038000000089;stroke-dasharray:12, 12;stroke-dashoffset:0;stroke-opacity:1;fill-opacity:1"
       id="rect9244"
       width="52.80899"
       height="24.719101"
       x="159.55057"
       y="395.03082"
       rx="2.1917808"
       ry="1.925926" />
    <text
       xml:space="preserve"
       style="font-size:16px;font-style:normal;font-weight:normal;fill:#000000;fill-opacity:1;stroke:none;stroke-width:1px;stroke-linecap:butt;stroke-linejoin:miter;stroke-opacity:1;font-family:Bitstream Vera Sans"
       x="166.13084"
       y="412.95157"
       id="text2482"><tspan
         sodipodi:role="line"
         id="tspan2484"
         x="166.13084"
         y="412.95157">error</tspan></text>
    <g
       id="g11567"
       transform="translate(-14.893617,1.0638298)"
       inkscape:connector-avoid="true">
      <rect
         inkscape:connector-avoid="true"
         ry="3"
         rx="3"
         y="450.46152"
         x="210.86142"
         height="22.846441"
         width="98.127342"
         id="rect9248"
         style="fill:#dadada;fill-opacity:1;stroke:none;stroke-width:1;stroke-linecap:round;stroke-linejoin:round;stroke-miterlimit:22.10000038;stroke-dasharray:12, 12;stroke-dashoffset:0;stroke-opacity:1" />
      <text
         id="text2486"
         y="467.84958"
         x="215.33134"
         style="font-size:16px;font-style:normal;font-weight:normal;fill:#000000;fill-opacity:1;stroke:none;stroke-width:1px;stroke-linecap:butt;stroke-linejoin:miter;stroke-opacity:1;font-family:Bitstream Vera Sans"
         xml:space="preserve"><tspan
           y="467.84958"
           x="215.33134"
           id="tspan2488"
           sodipodi:role="line">return card</tspan></text>
    </g>
    <g
       id="g11577"
       transform="translate(5.5531913,10.106383)">
      <rect
         ry="1.6275431"
         rx="2.0547945"
         y="450.83606"
         x="47.103935"
         height="22.47191"
         width="95.505615"
         id="rect9246"
         style="fill:#dadada;fill-opacity:1;stroke:none;stroke-width:1;stroke-linecap:round;stroke-linejoin:round;stroke-miterlimit:22.10000038;stroke-dasharray:12, 12;stroke-dashoffset:0;stroke-opacity:1" />
      <text
         id="text2490"
         y="468.03687"
         x="50.262993"
         style="font-size:16px;font-style:normal;font-weight:normal;fill:#000000;fill-opacity:1;stroke:none;stroke-width:1px;stroke-linecap:butt;stroke-linejoin:miter;stroke-opacity:1;font-family:Bitstream Vera Sans"
         xml:space="preserve"><tspan
           y="468.03687"
           x="50.262993"
           id="tspan2492"
           sodipodi:role="line">return card</tspan></text>
    </g>
    <g
       id="g11561"
       transform="translate(-14.893617,7.978723)">
      <g
         id="g11558">
        <rect
           style="fill:#dadada;fill-opacity:1;stroke:none;stroke-width:1;stroke-linecap:round;stroke-linejoin:round;stroke-miterlimit:22.10000038;stroke-dasharray:12, 12;stroke-dashoffset:0;stroke-opacity:1"
           id="rect9250"
           width="87.265923"
           height="22.47191"
           x="210.86142"
           y="482.6713"
           rx="3"
           ry="3" />
      </g>
      <text
         id="text2494"
         y="498.32132"
         x="215.11938"
         style="font-size:16px;font-style:normal;font-weight:normal;fill:#000000;fill-opacity:1;stroke:none;stroke-width:1px;stroke-linecap:butt;stroke-linejoin:miter;stroke-opacity:1;font-family:Bitstream Vera Sans"
         xml:space="preserve"><tspan
           y="498.32132"
           x="215.11938"
           id="tspan2496"
           sodipodi:role="line">keep card</tspan></text>
    </g>
    <rect
       style="text-align:center;text-anchor:middle;fill:#dadada;stroke:none;stroke-width:1;stroke-linecap:butt;stroke-linejoin:round;stroke-miterlimit:22.10000038000000089;stroke-dasharray:none;stroke-dashoffset:9;stroke-opacity:1;fill-opacity:1"
       id="rect2438"
       width="106.21535"
       height="41.073032"
       x="311.3118"
       y="103.51958"
       rx="2.4949708"
       ry="2.9639189" />
    <text
       xml:space="preserve"
       style="font-size:16px;font-style:normal;font-weight:normal;text-align:center;text-anchor:middle;fill:#000000;fill-opacity:1;stroke:none;stroke-width:1px;stroke-linecap:butt;stroke-linejoin:miter;stroke-opacity:1;font-family:Bitstream Vera Sans"
       x="364.37259"
       y="120.02094"
       id="text2514"><tspan
         sodipodi:role="line"
         id="tspan2516"
         x="366.91946"
         y="120.02094">Establish </tspan><tspan
         sodipodi:role="line"
         x="364.37259"
         y="140.02094"
         id="tspan2518">connections</tspan></text>
    <g
       id="g11611"
       transform="translate(5.673996,0)">
      <rect
         ry="3"
         rx="3"
         y="152.70871"
         x="300.74905"
         height="22.47191"
         width="127.34082"
         id="rect2436"
         style="fill:#dadada;fill-opacity:1;stroke:none;stroke-width:1;stroke-linecap:butt;stroke-linejoin:round;stroke-miterlimit:22.10000038;stroke-dasharray:none;stroke-dashoffset:9;stroke-opacity:1" />
      <text
         id="text2520"
         y="169.90952"
         x="304.03717"
         style="font-size:16px;font-style:normal;font-weight:normal;fill:#000000;fill-opacity:1;stroke:none;stroke-width:1px;stroke-linecap:butt;stroke-linejoin:miter;stroke-opacity:1;font-family:Bitstream Vera Sans"
         xml:space="preserve"><tspan
           y="169.90952"
           x="304.03717"
           id="tspan2522"
           sodipodi:role="line">Read Accounts</tspan></text>
    </g>
    <g
       id="g11616">
      <rect
         y="201.66939"
         x="286.9101"
         height="23.595505"
         width="64.419479"
         id="rect10334"
         style="fill:#dadada;stroke:none;stroke-width:0.69999999000000002;stroke-linecap:round;stroke-linejoin:round;stroke-miterlimit:4;stroke-dasharray:none;stroke-dashoffset:0;stroke-opacity:1;fill-opacity:1" />
      <text
         id="text2524"
         y="218.48276"
         x="289.95969"
         style="font-size:16px;font-style:normal;font-weight:normal;fill:#000000;fill-opacity:1;stroke:none;stroke-width:1px;stroke-linecap:butt;stroke-linejoin:miter;stroke-opacity:1;font-family:Bitstream Vera Sans"
         xml:space="preserve"><tspan
           y="218.48276"
           x="289.95969"
           id="tspan2526"
           sodipodi:role="line">menu()</tspan></text>
    </g>
    <path
       style="fill:none;fill-rule:evenodd;stroke:#000000;stroke-width:0.98282242;stroke-linecap:butt;stroke-linejoin:miter;marker-start:none;marker-end:url(#Arrow2Lend);stroke-miterlimit:13.05000019;stroke-dasharray:3.93128967, 3.93128967;stroke-dashoffset:0;stroke-opacity:1"
       d="M 376.00859,292.08589 L 376.00859,325.10307 L 167.95685,325.10307 L 167.47413,293.58667 L 167.47413,311.58667 L 167.49141,302.08719"
       id="path7003"
       sodipodi:nodetypes="cccccc" />
    <g
       id="g11605"
       transform="translate(0,-2.9345703)">
      <g
         id="g11601">
        <g
           id="g11588">
          <rect
             ry="3"
             rx="3"
             y="276.80475"
             x="300"
             height="26.168224"
             width="140.18692"
             id="rect2542"
             style="fill:#dadada;fill-opacity:1;stroke-width:160.80000305;stroke-linecap:round;stroke-linejoin:round;stroke-miterlimit:4;stroke-dasharray:none" />
        </g>
      </g>
      <path
         id="text2528"
         d="M 313.43722,290.57246 L 313.43722,295.85371 L 311.99972,295.85371 L 311.99972,290.61934 C 311.99971,289.79122 311.83825,289.17143 311.51534,288.75996 C 311.19242,288.34851 310.70805,288.14278 310.06222,288.14277 C 309.28617,288.14278 308.67419,288.39018 308.22628,288.88496 C 307.77836,289.37976 307.5544,290.05424 307.55441,290.9084 L 307.55441,295.85371 L 306.10909,295.85371 L 306.10909,287.10371 L 307.55441,287.10371 L 307.55441,288.46309 C 307.89815,287.93705 308.3018,287.54382 308.76534,287.2834 C 309.23409,287.02299 309.77315,286.89278 310.38253,286.89277 C 311.38773,286.89278 312.14815,287.20528 312.66378,287.83027 C 313.1794,288.45007 313.43721,289.36413 313.43722,290.57246 M 323.80441,291.11934 L 323.80441,291.82246 L 317.19503,291.82246 C 317.25753,292.81205 317.5544,293.56725 318.08566,294.08809 C 318.62211,294.60371 319.3669,294.86152 320.32003,294.86152 C 320.87211,294.86152 321.40596,294.79382 321.92159,294.6584 C 322.44242,294.52298 322.95804,294.31986 323.46847,294.04902 L 323.46847,295.4084 C 322.95283,295.62715 322.42419,295.79381 321.88253,295.9084 C 321.34086,296.02298 320.79138,296.08027 320.23409,296.08027 C 318.83826,296.08027 317.73149,295.67402 316.91378,294.86152 C 316.10128,294.04903 315.69503,292.95007 315.69503,291.56465 C 315.69503,290.13236 316.08045,288.99695 316.85128,288.1584 C 317.62732,287.31466 318.67159,286.89278 319.98409,286.89277 C 321.16117,286.89278 322.09086,287.27299 322.77316,288.0334 C 323.46065,288.78861 323.8044,289.81726 323.80441,291.11934 M 322.36691,290.69746 C 322.35648,289.91101 322.13513,289.2834 321.70284,288.81465 C 321.27575,288.34591 320.70805,288.11153 319.99972,288.11152 C 319.19763,288.11153 318.5544,288.33809 318.07003,288.79121 C 317.59086,289.24434 317.31482,289.88236 317.24191,290.70527 L 322.36691,290.69746 M 327.58566,284.61934 L 327.58566,287.10371 L 330.54659,287.10371 L 330.54659,288.2209 L 327.58566,288.2209 L 327.58566,292.9709 C 327.58565,293.68444 327.68201,294.14277 327.87472,294.3459 C 328.07263,294.54902 328.47107,294.65059 329.07003,294.65059 L 330.54659,294.65059 L 330.54659,295.85371 L 329.07003,295.85371 C 327.96065,295.85371 327.19503,295.64798 326.77316,295.23652 C 326.35128,294.81986 326.14034,294.06465 326.14034,292.9709 L 326.14034,288.2209 L 325.08566,288.2209 L 325.08566,287.10371 L 326.14034,287.10371 L 326.14034,284.61934 L 327.58566,284.61934 M 331.60909,287.10371 L 333.04659,287.10371 L 334.84347,293.93184 L 336.63253,287.10371 L 338.32784,287.10371 L 340.12472,293.93184 L 341.91378,287.10371 L 343.35128,287.10371 L 341.06222,295.85371 L 339.36691,295.85371 L 337.48409,288.68184 L 335.59347,295.85371 L 333.89816,295.85371 L 331.60909,287.10371 M 348.92941,288.11152 C 348.15857,288.11153 347.54919,288.41361 347.10128,289.01777 C 346.65336,289.61674 346.4294,290.43965 346.42941,291.48652 C 346.4294,292.5334 346.65076,293.35892 347.09347,293.96309 C 347.54138,294.56205 348.15336,294.86152 348.92941,294.86152 C 349.69502,294.86152 350.30179,294.55944 350.74972,293.95527 C 351.19763,293.35111 351.42159,292.52819 351.42159,291.48652 C 351.42159,290.45007 351.19763,289.62976 350.74972,289.02559 C 350.30179,288.41622 349.69502,288.11153 348.92941,288.11152 M 348.92941,286.89277 C 350.1794,286.89278 351.16117,287.29903 351.87472,288.11152 C 352.58825,288.92403 352.94502,290.04903 352.94503,291.48652 C 352.94502,292.91882 352.58825,294.04382 351.87472,294.86152 C 351.16117,295.67402 350.1794,296.08027 348.92941,296.08027 C 347.67419,296.08027 346.68982,295.67402 345.97628,294.86152 C 345.26795,294.04382 344.91378,292.91882 344.91378,291.48652 C 344.91378,290.04903 345.26795,288.92403 345.97628,288.11152 C 346.68982,287.29903 347.67419,286.89278 348.92941,286.89277 M 360.39034,288.44746 C 360.22888,288.35372 360.0518,288.28601 359.85909,288.24434 C 359.67159,288.19747 359.46325,288.17403 359.23409,288.17402 C 358.42159,288.17403 357.79659,288.43966 357.35909,288.9709 C 356.9268,289.49695 356.71065,290.25476 356.71066,291.24434 L 356.71066,295.85371 L 355.26534,295.85371 L 355.26534,287.10371 L 356.71066,287.10371 L 356.71066,288.46309 C 357.01274,287.93184 357.40596,287.53861 357.89034,287.2834 C 358.37471,287.02299 358.96325,286.89278 359.65597,286.89277 C 359.75492,286.89278 359.8643,286.90059 359.98409,286.91621 C 360.10388,286.92664 360.23669,286.94487 360.38253,286.9709 L 360.39034,288.44746 M 361.85909,283.69746 L 363.30441,283.69746 L 363.30441,290.87715 L 367.59347,287.10371 L 369.42941,287.10371 L 364.78878,291.19746 L 369.62472,295.85371 L 367.74972,295.85371 L 363.30441,291.58027 L 363.30441,295.85371 L 361.85909,295.85371 L 361.85909,283.69746 M 371.25753,284.18965 L 372.83566,284.18965 L 372.83566,294.52559 L 378.51534,294.52559 L 378.51534,295.85371 L 371.25753,295.85371 L 371.25753,284.18965 M 380.10128,287.10371 L 381.53878,287.10371 L 381.53878,295.85371 L 380.10128,295.85371 L 380.10128,287.10371 M 380.10128,283.69746 L 381.53878,283.69746 L 381.53878,285.51777 L 380.10128,285.51777 L 380.10128,283.69746 M 390.11691,287.36152 L 390.11691,288.7209 C 389.71065,288.51257 389.28877,288.35632 388.85128,288.25215 C 388.41378,288.14799 387.96065,288.09591 387.49191,288.0959 C 386.77836,288.09591 386.2419,288.20528 385.88253,288.42402 C 385.52836,288.64278 385.35128,288.97091 385.35128,289.4084 C 385.35128,289.74174 385.47888,290.00476 385.73409,290.19746 C 385.9893,290.38497 386.50232,290.56465 387.27316,290.73652 L 387.76534,290.8459 C 388.78617,291.06465 389.51013,291.37455 389.93722,291.77559 C 390.3695,292.17142 390.58565,292.72611 390.58566,293.43965 C 390.58565,294.25215 390.26273,294.89538 389.61691,295.36934 C 388.97627,295.84329 388.09346,296.08027 386.96847,296.08027 C 386.49971,296.08027 386.01013,296.0334 385.49972,295.93965 C 384.99451,295.85111 384.46065,295.71569 383.89816,295.5334 L 383.89816,294.04902 C 384.4294,294.32507 384.95284,294.5334 385.46847,294.67402 C 385.98409,294.80944 386.49451,294.87715 386.99972,294.87715 C 387.6768,294.87715 388.19763,294.76257 388.56222,294.5334 C 388.9268,294.29902 389.10909,293.9709 389.10909,293.54902 C 389.10909,293.1584 388.97627,292.85892 388.71066,292.65059 C 388.45023,292.44226 387.87471,292.24174 386.98409,292.04902 L 386.48409,291.93184 C 385.59347,291.74434 384.95024,291.45788 384.55441,291.07246 C 384.15857,290.68184 383.96065,290.14799 383.96066,289.4709 C 383.96065,288.64799 384.25232,288.01257 384.83566,287.56465 C 385.41899,287.11674 386.24711,286.89278 387.32003,286.89277 C 387.85128,286.89278 388.35128,286.93184 388.82003,287.00996 C 389.28877,287.08809 389.72107,287.20528 390.11691,287.36152 M 394.30441,284.61934 L 394.30441,287.10371 L 397.26534,287.10371 L 397.26534,288.2209 L 394.30441,288.2209 L 394.30441,292.9709 C 394.3044,293.68444 394.40076,294.14277 394.59347,294.3459 C 394.79138,294.54902 395.18982,294.65059 395.78878,294.65059 L 397.26534,294.65059 L 397.26534,295.85371 L 395.78878,295.85371 C 394.6794,295.85371 393.91378,295.64798 393.49191,295.23652 C 393.07003,294.81986 392.85909,294.06465 392.85909,292.9709 L 392.85909,288.2209 L 391.80441,288.2209 L 391.80441,287.10371 L 392.85909,287.10371 L 392.85909,284.61934 L 394.30441,284.61934 M 406.64816,291.11934 L 406.64816,291.82246 L 400.03878,291.82246 C 400.10128,292.81205 400.39815,293.56725 400.92941,294.08809 C 401.46586,294.60371 402.21065,294.86152 403.16378,294.86152 C 403.71586,294.86152 404.24971,294.79382 404.76534,294.6584 C 405.28617,294.52298 405.80179,294.31986 406.31222,294.04902 L 406.31222,295.4084 C 405.79658,295.62715 405.26794,295.79381 404.72628,295.9084 C 404.18461,296.02298 403.63513,296.08027 403.07784,296.08027 C 401.68201,296.08027 400.57524,295.67402 399.75753,294.86152 C 398.94503,294.04903 398.53878,292.95007 398.53878,291.56465 C 398.53878,290.13236 398.9242,288.99695 399.69503,288.1584 C 400.47107,287.31466 401.51534,286.89278 402.82784,286.89277 C 404.00492,286.89278 404.93461,287.27299 405.61691,288.0334 C 406.3044,288.78861 406.64815,289.81726 406.64816,291.11934 M 405.21066,290.69746 C 405.20023,289.91101 404.97888,289.2834 404.54659,288.81465 C 404.1195,288.34591 403.5518,288.11153 402.84347,288.11152 C 402.04138,288.11153 401.39815,288.33809 400.91378,288.79121 C 400.43461,289.24434 400.15857,289.88236 400.08566,290.70527 L 405.21066,290.69746 M 416.28097,290.57246 L 416.28097,295.85371 L 414.84347,295.85371 L 414.84347,290.61934 C 414.84346,289.79122 414.682,289.17143 414.35909,288.75996 C 414.03617,288.34851 413.5518,288.14278 412.90597,288.14277 C 412.12992,288.14278 411.51794,288.39018 411.07003,288.88496 C 410.62211,289.37976 410.39815,290.05424 410.39816,290.9084 L 410.39816,295.85371 L 408.95284,295.85371 L 408.95284,287.10371 L 410.39816,287.10371 L 410.39816,288.46309 C 410.7419,287.93705 411.14555,287.54382 411.60909,287.2834 C 412.07784,287.02299 412.6169,286.89278 413.22628,286.89277 C 414.23148,286.89278 414.9919,287.20528 415.50753,287.83027 C 416.02315,288.45007 416.28096,289.36413 416.28097,290.57246 M 426.64816,291.11934 L 426.64816,291.82246 L 420.03878,291.82246 C 420.10128,292.81205 420.39815,293.56725 420.92941,294.08809 C 421.46586,294.60371 422.21065,294.86152 423.16378,294.86152 C 423.71586,294.86152 424.24971,294.79382 424.76534,294.6584 C 425.28617,294.52298 425.80179,294.31986 426.31222,294.04902 L 426.31222,295.4084 C 425.79658,295.62715 425.26794,295.79381 424.72628,295.9084 C 424.18461,296.02298 423.63513,296.08027 423.07784,296.08027 C 421.68201,296.08027 420.57524,295.67402 419.75753,294.86152 C 418.94503,294.04903 418.53878,292.95007 418.53878,291.56465 C 418.53878,290.13236 418.9242,288.99695 419.69503,288.1584 C 420.47107,287.31466 421.51534,286.89278 422.82784,286.89277 C 424.00492,286.89278 424.93461,287.27299 425.61691,288.0334 C 426.3044,288.78861 426.64815,289.81726 426.64816,291.11934 M 425.21066,290.69746 C 425.20023,289.91101 424.97888,289.2834 424.54659,288.81465 C 424.1195,288.34591 423.5518,288.11153 422.84347,288.11152 C 422.04138,288.11153 421.39815,288.33809 420.91378,288.79121 C 420.43461,289.24434 420.15857,289.88236 420.08566,290.70527 L 425.21066,290.69746 M 434.07784,288.44746 C 433.91638,288.35372 433.7393,288.28601 433.54659,288.24434 C 433.35909,288.19747 433.15075,288.17403 432.92159,288.17402 C 432.10909,288.17403 431.48409,288.43966 431.04659,288.9709 C 430.6143,289.49695 430.39815,290.25476 430.39816,291.24434 L 430.39816,295.85371 L 428.95284,295.85371 L 428.95284,287.10371 L 430.39816,287.10371 L 430.39816,288.46309 C 430.70024,287.93184 431.09346,287.53861 431.57784,287.2834 C 432.06221,287.02299 432.65075,286.89278 433.34347,286.89277 C 433.44242,286.89278 433.5518,286.90059 433.67159,286.91621 C 433.79138,286.92664 433.92419,286.94487 434.07003,286.9709 L 434.07784,288.44746"
         style="font-size:16px;font-style:normal;font-weight:normal;fill:#000000;fill-opacity:1;stroke:none;stroke-width:1px;stroke-linecap:butt;stroke-linejoin:miter;stroke-opacity:1;font-family:Bitstream Vera Sans" />
    </g>
    <path
       style="fill:none;fill-rule:evenodd;stroke:#000000;stroke-width:1;stroke-linecap:butt;stroke-linejoin:round;marker-start:none;marker-end:url(#Arrow2Lend);stroke-miterlimit:13.05000019;stroke-dasharray:4, 4;stroke-dashoffset:0;stroke-opacity:1;display:inline"
       d="M 188.09451,287.98994 L 300,289.15753"
       id="path3328"
       inkscape:connector-type="polyline"
       inkscape:connection-end="#rect2542"
       inkscape:connection-start="#rect2536" />
    <text
       xml:space="preserve"
       style="font-size:12px;font-style:normal;font-weight:normal;fill:#000000;fill-opacity:1;stroke:none;stroke-width:1px;stroke-linecap:butt;stroke-linejoin:miter;stroke-opacity:1;font-family:Bitstream Vera Sans"
       x="199.44615"
       y="284.56583"
       id="text5172"><tspan
         sodipodi:role="line"
         id="tspan5174"
         x="199.44615"
         y="284.56583">03x1234x100</tspan></text>
    <path
       style="fill:none;fill-rule:evenodd;stroke:#000000;stroke-width:0.69999999;stroke-linecap:butt;stroke-linejoin:miter;marker-end:url(#Arrow2Lend);stroke-miterlimit:4;stroke-dasharray:none;stroke-opacity:1;display:inline"
       d="M 123.71601,166.1664 L 123.71601,186.0166"
       id="path3246"
       inkscape:connector-type="polyline"
       inkscape:connection-end="#rect2444"
       inkscape:connection-start="#rect2442" />
    <path
       style="fill:none;fill-rule:evenodd;stroke:#000000;stroke-width:0.69999999;stroke-linecap:round;stroke-linejoin:round;marker-mid:none;marker-end:url(#Arrow2Lend);stroke-miterlimit:0;stroke-dasharray:none;stroke-opacity:1;display:inline"
       d="M 123.71601,211.8593 L 123.71601,231.52222"
       id="path3248"
       inkscape:connector-type="polyline"
       inkscape:connection-end="#rect2446"
       inkscape:connection-start="#rect2444" />
    <path
       style="fill:none;fill-rule:evenodd;stroke:#000000;stroke-width:0.69999999;stroke-linecap:butt;stroke-linejoin:miter;marker-start:none;marker-mid:none;marker-end:url(#Arrow2Lend);stroke-miterlimit:4;stroke-dasharray:none;stroke-opacity:1;display:inline"
       d="M 123.82919,252.12147 L 124.06817,273.87018"
       id="path3250"
       inkscape:connector-type="polyline"
       inkscape:connection-end="#rect2536"
       inkscape:connection-start="#rect2446" />
    <path
       style="fill:none;fill-rule:evenodd;stroke:#000000;stroke-width:0.69999999;stroke-linecap:butt;stroke-linejoin:miter;marker-end:url(#Arrow2Lend);stroke-miterlimit:4;stroke-dasharray:none;stroke-opacity:1;display:inline"
       d="M 120.68931,300.77672 L 95.686605,396.15442"
       id="path9282"
       inkscape:connector-type="polyline"
       inkscape:connection-start="#rect2536" />
    <path
       style="fill:none;fill-rule:evenodd;stroke:#000000;stroke-width:0.69999999;stroke-linecap:butt;stroke-linejoin:miter;marker-end:url(#Arrow2Lend);stroke-miterlimit:4;stroke-dasharray:none;stroke-opacity:1;display:inline"
       d="M 131.13375,300.77672 L 179.59972,395.03082"
       id="path9284"
       inkscape:connector-type="polyline"
       inkscape:connection-start="#rect2536" />
    <path
       style="fill:none;fill-rule:evenodd;stroke:#000000;stroke-width:0.69999999;stroke-linecap:butt;stroke-linejoin:miter;marker-end:url(#Arrow2Lend);stroke-miterlimit:4;stroke-dasharray:none;stroke-opacity:1;display:inline"
       d="M 100.40993,419.74993 L 100.40993,460.94244"
       id="path9286"
       inkscape:connector-type="polyline"
       inkscape:connection-start="#g11572"
       inkscape:connection-end="#g11577" />
    <path
       style="fill:none;fill-rule:evenodd;stroke:#000000;stroke-width:0.69999999;stroke-linecap:butt;stroke-linejoin:miter;marker-end:url(#Arrow2Lend);stroke-miterlimit:4;stroke-dasharray:none;stroke-opacity:1;display:inline"
       d="M 202.73177,419.74992 L 244.41934,450.46153"
       id="path9288"
       inkscape:connector-type="polyline"
       inkscape:connection-start="#rect9244" />
    <path
       style="fill:none;fill-rule:evenodd;stroke:#000000;stroke-width:0.69999999;stroke-linecap:butt;stroke-linejoin:miter;marker-end:url(#Arrow2Lend);stroke-miterlimit:4;stroke-dasharray:none;stroke-opacity:1;display:inline"
       d="M 187.1936,419.74992 L 192.9678,477.37179 L 218.22678,490.65002"
       id="path9290"
       inkscape:connector-type="polyline"
       inkscape:connection-end="#g11561"
       inkscape:connection-start="#rect9244" />
    <g
       id="g11595">
      <rect
         ry="3"
         rx="3"
         y="273.87018"
         x="60.337502"
         height="26.906542"
         width="127.75701"
         id="rect2536"
         style="fill:#dadada;stroke-width:160.80000304999998662;stroke-linecap:round;stroke-linejoin:round;stroke-miterlimit:4;stroke-dasharray:none;fill-opacity:1" />
      <g
         id="g11591">
        <text
           xml:space="preserve"
           style="font-size:16px;font-style:normal;font-weight:normal;fill:#000000;fill-opacity:1;stroke:none;stroke-width:1px;stroke-linecap:butt;stroke-linejoin:miter;stroke-opacity:1;font-family:Bitstream Vera Sans"
           x="63.915222"
           y="291.73752"
           id="text3277"><tspan
             sodipodi:role="line"
             id="tspan3279"
             x="63.915222"
             y="291.73752">requestFunds()</tspan></text>
      </g>
    </g>
    <path
       style="fill:none;fill-rule:evenodd;stroke:#000000;stroke-width:0.69999999;stroke-linecap:butt;stroke-linejoin:miter;marker-end:url(#Arrow2Lend);stroke-miterlimit:4;stroke-dasharray:none;stroke-opacity:1;display:inline"
       d="M 370.09346,175.18062 L 370.09346,273.87018"
       id="path3301"
       inkscape:connector-type="polyline"
       inkscape:connection-end="#rect2542"
       inkscape:connection-start="#g11611" />
    <path
       style="fill:none;fill-rule:evenodd;stroke:#000000;stroke-width:0.69999999;stroke-linecap:butt;stroke-linejoin:miter;marker-end:url(#Arrow2Lend);stroke-miterlimit:4;stroke-dasharray:none;stroke-opacity:1;display:inline"
       d="M 358.52826,175.18062 L 331.2633,201.66939"
       id="path3303"
       inkscape:connector-type="polyline"
       inkscape:connection-end="#rect10334"
       inkscape:connection-start="#g11611" />
    <text
       xml:space="preserve"
       style="font-size:12px;font-style:normal;font-weight:normal;fill:#000000;fill-opacity:1;stroke:none;stroke-width:1px;stroke-linecap:butt;stroke-linejoin:miter;stroke-opacity:1;font-family:Bitstream Vera Sans"
       x="203.5"
       y="337.09448"
       id="text11510"><tspan
         sodipodi:role="line"
         id="tspan11512"
         x="203.5"
         y="337.09448">ack / funds / pin /kill /card</tspan></text>
    <path
       style="fill:none;fill-rule:evenodd;stroke:#000000;stroke-width:1px;stroke-linecap:butt;stroke-linejoin:miter;stroke-opacity:1"
       d="M 367.55319,174.94555 L 367.62015,175.18062"
       id="path11586"
       inkscape:connector-type="polyline"
       inkscape:connection-end="#rect2436" />
  </g>
</svg>
